<mxfile host="65bd71144e">
    <diagram id="8JqFPpag0pQdELvoUVvO" name="第 1 页">
        <mxGraphModel dx="796" dy="633" grid="1" gridSize="10" guides="1" tooltips="1" connect="1" arrows="1" fold="1" page="1" pageScale="1" pageWidth="1200" pageHeight="1920" math="0" shadow="0">
            <root>
                <mxCell id="0"/>
                <mxCell id="1" parent="0"/>
                <mxCell id="2" value="iport[0]" style="rounded=0;whiteSpace=wrap;html=1;hachureGap=4;fontFamily=Verdana;fontSize=20;points=[[0,0,0,0,0],[0,0.25,0,0,0],[0,0.5,0,0,0],[0,0.75,0,0,0],[0,1,0,0,0],[0.25,0,0,0,0],[0.25,1,0,0,0],[0.5,0,0,0,0],[0.5,1,0,0,0],[0.75,0,0,0,0],[0.75,1,0,0,0],[1,0,0,0,0],[1,0.33,0,0,0],[1,0.5,0,0,0],[1,0.66,0,0,0],[1,1,0,0,0]];" vertex="1" parent="1">
                    <mxGeometry x="200" y="180" width="120" height="40" as="geometry"/>
                </mxCell>
                <mxCell id="6" value="arb[3]" style="rounded=0;whiteSpace=wrap;html=1;hachureGap=4;fontFamily=Verdana;fontSize=20;verticalAlign=top;" vertex="1" parent="1">
                    <mxGeometry x="660" y="250" width="260" height="90" as="geometry"/>
                </mxCell>
                <mxCell id="49" style="edgeStyle=orthogonalEdgeStyle;rounded=1;sketch=0;hachureGap=4;jiggle=2;curveFitting=1;jumpStyle=gap;html=1;exitX=1;exitY=0.5;exitDx=0;exitDy=0;exitPerimeter=0;entryX=0;entryY=0.4;entryDx=0;entryDy=0;entryPerimeter=0;strokeColor=default;fontFamily=Verdana;fontSize=15;" edge="1" parent="1" source="28" target="41">
                    <mxGeometry relative="1" as="geometry">
                        <Array as="points">
                            <mxPoint x="520" y="260"/>
                            <mxPoint x="520" y="310"/>
                        </Array>
                    </mxGeometry>
                </mxCell>
                <mxCell id="72" value="req[7]" style="edgeLabel;html=1;align=center;verticalAlign=middle;resizable=0;points=[];fontSize=15;fontFamily=Verdana;" vertex="1" connectable="0" parent="49">
                    <mxGeometry x="-0.7894" y="-1" relative="1" as="geometry">
                        <mxPoint x="21" as="offset"/>
                    </mxGeometry>
                </mxCell>
                <mxCell id="28" value="iport[1]" style="rounded=0;whiteSpace=wrap;html=1;hachureGap=4;fontFamily=Verdana;fontSize=20;points=[[0,0,0,0,0],[0,0.25,0,0,0],[0,0.5,0,0,0],[0,0.75,0,0,0],[0,1,0,0,0],[0.25,0,0,0,0],[0.25,1,0,0,0],[0.5,0,0,0,0],[0.5,1,0,0,0],[0.75,0,0,0,0],[0.75,1,0,0,0],[1,0,0,0,0],[1,0.33,0,0,0],[1,0.5,0,0,0],[1,0.66,0,0,0],[1,1,0,0,0]];" vertex="1" parent="1">
                    <mxGeometry x="200" y="240" width="120" height="40" as="geometry"/>
                </mxCell>
                <mxCell id="50" style="edgeStyle=orthogonalEdgeStyle;rounded=1;sketch=0;hachureGap=4;jiggle=2;curveFitting=1;jumpStyle=gap;html=1;entryX=0;entryY=0.6;entryDx=0;entryDy=0;entryPerimeter=0;strokeColor=default;fontFamily=Verdana;fontSize=15;exitX=1;exitY=0.5;exitDx=0;exitDy=0;exitPerimeter=0;" edge="1" parent="1" source="29" target="41">
                    <mxGeometry relative="1" as="geometry">
                        <mxPoint x="360" y="340" as="sourcePoint"/>
                        <Array as="points">
                            <mxPoint x="660" y="320"/>
                        </Array>
                    </mxGeometry>
                </mxCell>
                <mxCell id="60" value="req[11]" style="edgeLabel;html=1;align=center;verticalAlign=middle;resizable=0;points=[];fontSize=15;fontFamily=Verdana;" vertex="1" connectable="0" parent="50">
                    <mxGeometry x="-0.6878" relative="1" as="geometry">
                        <mxPoint x="13" as="offset"/>
                    </mxGeometry>
                </mxCell>
                <mxCell id="29" value="iport[2]" style="rounded=0;whiteSpace=wrap;html=1;hachureGap=4;fontFamily=Verdana;fontSize=20;points=[[0,0,0,0,0],[0,0.25,0,0,0],[0,0.5,0,0,0],[0,0.75,0,0,0],[0,1,0,0,0],[0.25,0,0,0,0],[0.25,1,0,0,0],[0.5,0,0,0,0],[0.5,1,0,0,0],[0.75,0,0,0,0],[0.75,1,0,0,0],[1,0,0,0,0],[1,0.33,0,0,0],[1,0.5,0,0,0],[1,0.66,0,0,0],[1,1,0,0,0]];" vertex="1" parent="1">
                    <mxGeometry x="200" y="300" width="120" height="40" as="geometry"/>
                </mxCell>
                <mxCell id="51" style="edgeStyle=orthogonalEdgeStyle;rounded=1;sketch=0;hachureGap=4;jiggle=2;curveFitting=1;jumpStyle=gap;html=1;entryX=0;entryY=0.8;entryDx=0;entryDy=0;entryPerimeter=0;strokeColor=default;fontFamily=Verdana;fontSize=15;exitX=1;exitY=0.5;exitDx=0;exitDy=0;exitPerimeter=0;" edge="1" parent="1" source="30" target="41">
                    <mxGeometry relative="1" as="geometry">
                        <mxPoint x="340" y="370" as="sourcePoint"/>
                        <Array as="points">
                            <mxPoint x="560" y="380"/>
                            <mxPoint x="560" y="330"/>
                        </Array>
                    </mxGeometry>
                </mxCell>
                <mxCell id="61" value="req[15]" style="edgeLabel;html=1;align=center;verticalAlign=middle;resizable=0;points=[];fontSize=15;fontFamily=Verdana;" vertex="1" connectable="0" parent="51">
                    <mxGeometry x="-0.7708" relative="1" as="geometry">
                        <mxPoint x="18" as="offset"/>
                    </mxGeometry>
                </mxCell>
                <mxCell id="30" value="iport[3]" style="rounded=0;whiteSpace=wrap;html=1;hachureGap=4;fontFamily=Verdana;fontSize=20;points=[[0,0,0,0,0],[0,0.25,0,0,0],[0,0.5,0,0,0],[0,0.75,0,0,0],[0,1,0,0,0],[0.25,0,0,0,0],[0.25,1,0,0,0],[0.5,0,0,0,0],[0.5,1,0,0,0],[0.75,0,0,0,0],[0.75,1,0,0,0],[1,0,0,0,0],[1,0.33,0,0,0],[1,0.5,0,0,0],[1,0.66,0,0,0],[1,1,0,0,0]];" vertex="1" parent="1">
                    <mxGeometry x="200" y="360" width="120" height="40" as="geometry"/>
                </mxCell>
                <mxCell id="41" value="req[15:12]" style="rounded=0;whiteSpace=wrap;html=1;hachureGap=4;fontFamily=Verdana;fontSize=20;points=[[0,0,0,0,0],[0,0.2,0,0,0],[0,0.4,0,0,0],[0,0.6,0,0,0],[0,0.8,0,0,0],[0,1,0,0,0],[0.25,0,0,0,0],[0.25,1,0,0,0],[0.5,0,0,0,0],[0.5,1,0,0,0],[0.75,0,0,0,0],[0.75,1,0,0,0],[1,0,0,0,0],[1,0.26,0,0,0],[1,0.5,0,0,0],[1,0.76,0,0,0],[1,1,0,0,0]];" vertex="1" parent="1">
                    <mxGeometry x="660" y="290" width="130" height="50" as="geometry"/>
                </mxCell>
                <mxCell id="54" style="edgeStyle=orthogonalEdgeStyle;rounded=1;sketch=0;hachureGap=4;jiggle=2;curveFitting=1;html=1;exitX=1;exitY=0.5;exitDx=0;exitDy=0;exitPerimeter=0;strokeColor=default;fontFamily=Verdana;fontSize=15;jumpStyle=gap;entryX=0;entryY=0.2;entryDx=0;entryDy=0;entryPerimeter=0;" edge="1" parent="1" source="2" target="41">
                    <mxGeometry relative="1" as="geometry">
                        <mxPoint x="320" y="189.69000000000003" as="sourcePoint"/>
                        <mxPoint x="560" y="210" as="targetPoint"/>
                        <Array as="points">
                            <mxPoint x="560" y="200"/>
                            <mxPoint x="560" y="300"/>
                            <mxPoint x="660" y="300"/>
                        </Array>
                    </mxGeometry>
                </mxCell>
                <mxCell id="58" value="req[3]" style="edgeLabel;html=1;align=center;verticalAlign=middle;resizable=0;points=[];fontSize=15;fontFamily=Verdana;" vertex="1" connectable="0" parent="54">
                    <mxGeometry x="-0.8066" y="-1" relative="1" as="geometry">
                        <mxPoint x="17" as="offset"/>
                    </mxGeometry>
                </mxCell>
                <mxCell id="64" style="edgeStyle=orthogonalEdgeStyle;rounded=1;sketch=0;hachureGap=4;jiggle=2;curveFitting=1;jumpStyle=gap;html=1;exitX=0;exitY=0.8;exitDx=0;exitDy=0;exitPerimeter=0;entryX=0;entryY=0.5;entryDx=0;entryDy=0;entryPerimeter=0;strokeColor=default;fontFamily=Verdana;fontSize=15;" edge="1" parent="1" source="63" target="2">
                    <mxGeometry relative="1" as="geometry">
                        <Array as="points">
                            <mxPoint x="980" y="300"/>
                            <mxPoint x="980" y="140"/>
                            <mxPoint x="140" y="140"/>
                            <mxPoint x="140" y="200"/>
                        </Array>
                    </mxGeometry>
                </mxCell>
                <mxCell id="69" value="gnt[12]" style="edgeLabel;html=1;align=center;verticalAlign=middle;resizable=0;points=[];fontSize=15;fontFamily=Verdana;" vertex="1" connectable="0" parent="64">
                    <mxGeometry x="0.0542" y="1" relative="1" as="geometry">
                        <mxPoint x="3" as="offset"/>
                    </mxGeometry>
                </mxCell>
                <mxCell id="65" style="edgeStyle=orthogonalEdgeStyle;rounded=1;sketch=0;hachureGap=4;jiggle=2;curveFitting=1;jumpStyle=gap;html=1;exitX=0;exitY=0.6;exitDx=0;exitDy=0;exitPerimeter=0;entryX=0;entryY=0.5;entryDx=0;entryDy=0;entryPerimeter=0;strokeColor=default;fontFamily=Verdana;fontSize=15;" edge="1" parent="1" source="63" target="28">
                    <mxGeometry relative="1" as="geometry">
                        <Array as="points">
                            <mxPoint x="970" y="310"/>
                            <mxPoint x="970" y="160"/>
                            <mxPoint x="150" y="160"/>
                            <mxPoint x="150" y="260"/>
                        </Array>
                    </mxGeometry>
                </mxCell>
                <mxCell id="68" value="gnt[13]" style="edgeLabel;html=1;align=center;verticalAlign=middle;resizable=0;points=[];fontSize=15;fontFamily=Verdana;" vertex="1" connectable="0" parent="65">
                    <mxGeometry x="-0.0092" y="-1" relative="1" as="geometry">
                        <mxPoint as="offset"/>
                    </mxGeometry>
                </mxCell>
                <mxCell id="66" style="edgeStyle=orthogonalEdgeStyle;rounded=1;sketch=0;hachureGap=4;jiggle=2;curveFitting=1;jumpStyle=gap;html=1;exitX=0;exitY=0.4;exitDx=0;exitDy=0;exitPerimeter=0;entryX=0;entryY=0.5;entryDx=0;entryDy=0;entryPerimeter=0;strokeColor=default;fontFamily=Verdana;fontSize=15;" edge="1" parent="1" source="63" target="29">
                    <mxGeometry relative="1" as="geometry">
                        <Array as="points">
                            <mxPoint x="970" y="320"/>
                            <mxPoint x="970" y="420"/>
                            <mxPoint x="150" y="420"/>
                            <mxPoint x="150" y="320"/>
                        </Array>
                    </mxGeometry>
                </mxCell>
                <mxCell id="70" value="gnt[14]" style="edgeLabel;html=1;align=center;verticalAlign=middle;resizable=0;points=[];fontSize=15;fontFamily=Verdana;" vertex="1" connectable="0" parent="66">
                    <mxGeometry x="-0.0047" y="-1" relative="1" as="geometry">
                        <mxPoint as="offset"/>
                    </mxGeometry>
                </mxCell>
                <mxCell id="67" style="edgeStyle=orthogonalEdgeStyle;rounded=1;sketch=0;hachureGap=4;jiggle=2;curveFitting=1;jumpStyle=gap;html=1;exitX=0;exitY=0.2;exitDx=0;exitDy=0;exitPerimeter=0;entryX=0;entryY=0.5;entryDx=0;entryDy=0;entryPerimeter=0;strokeColor=default;fontFamily=Verdana;fontSize=15;" edge="1" parent="1" source="63" target="30">
                    <mxGeometry relative="1" as="geometry">
                        <Array as="points">
                            <mxPoint x="980" y="330"/>
                            <mxPoint x="980" y="440"/>
                            <mxPoint x="140" y="440"/>
                            <mxPoint x="140" y="380"/>
                        </Array>
                    </mxGeometry>
                </mxCell>
                <mxCell id="71" value="gnt[15]" style="edgeLabel;html=1;align=center;verticalAlign=middle;resizable=0;points=[];fontSize=15;fontFamily=Verdana;" vertex="1" connectable="0" parent="67">
                    <mxGeometry x="0.0586" y="-1" relative="1" as="geometry">
                        <mxPoint x="2" as="offset"/>
                    </mxGeometry>
                </mxCell>
                <mxCell id="63" value="gnt[3:0]" style="rounded=0;whiteSpace=wrap;html=1;hachureGap=4;fontFamily=Verdana;fontSize=20;points=[[0,0,0,0,0],[0,0.2,0,0,0],[0,0.4,0,0,0],[0,0.6,0,0,0],[0,0.8,0,0,0],[0,1,0,0,0],[0.25,0,0,0,0],[0.25,1,0,0,0],[0.5,0,0,0,0],[0.5,1,0,0,0],[0.75,0,0,0,0],[0.75,1,0,0,0],[1,0,0,0,0],[1,0.26,0,0,0],[1,0.5,0,0,0],[1,0.76,0,0,0],[1,1,0,0,0]];direction=west;" vertex="1" parent="1">
                    <mxGeometry x="820" y="290" width="100" height="50" as="geometry"/>
                </mxCell>
            </root>
        </mxGraphModel>
    </diagram>
</mxfile>